<svg width="135" height="20" viewBox="0 0 135 20" fill="none" xmlns="http://www.w3.org/2000/svg">
<path fill-rule="evenodd" clip-rule="evenodd" d="M36.314 0C36.314 3.6819 39.3077 6.66667 43.0007 6.66667H55.1877C58.8211 6.66667 61.7666 9.60329 61.7666 13.2258C61.7666 16.8483 58.8211 19.7849 55.1877 19.7849H42.3536C36.6355 19.7849 32 15.1634 32 9.46237H36.314C36.314 12.788 39.018 15.4839 42.3536 15.4839H55.1877C56.4386 15.4839 57.4526 14.4729 57.4526 13.2258C57.4526 11.9787 56.4386 10.9677 55.1877 10.9677H43.0007C36.9252 10.9677 32 6.05732 32 0H36.314ZM67.5905 0.215054V9.03226C67.5905 12.7142 70.5842 15.6989 74.2772 15.6989H78.3755V20H74.2772C68.2017 20 63.2765 15.0896 63.2765 9.03226V0.215054H67.5905ZM79.2383 13.2258C79.2383 9.60329 82.1837 6.66667 85.8171 6.66667H101.995C105.628 6.66667 108.573 9.60329 108.573 13.2258C108.573 16.8483 105.628 19.7849 101.995 19.7849H85.8171C82.1837 19.7849 79.2383 16.8483 79.2383 13.2258ZM85.8171 10.9677C84.5663 10.9677 83.5523 11.9787 83.5523 13.2258C83.5523 14.4729 84.5663 15.4839 85.8171 15.4839H101.995C103.245 15.4839 104.259 14.4729 104.259 13.2258C104.259 11.9787 103.245 10.9677 101.995 10.9677H85.8171ZM110.299 6.88172H112.346C115.537 6.88172 118.646 7.88969 121.227 9.76096L122.594 10.7524L123.961 9.76096C126.542 7.88969 129.651 6.88172 132.842 6.88172H134.889V11.1828H132.842C130.563 11.1828 127.479 11.9028 125.636 13.2394L125.398 13.4115L125.42 13.4273C127.264 14.7639 130.347 15.4839 132.626 15.4839H134.889V19.7849H132.626C129.435 19.7849 126.326 18.777 123.746 16.9057L122.594 16.0707L121.442 16.9057C118.862 18.777 115.753 19.7849 112.562 19.7849H110.299V15.4839H112.562C114.841 15.4839 117.924 14.7639 119.768 13.4273L119.789 13.4115L119.552 13.2394C117.709 11.9028 114.625 11.1828 112.346 11.1828H110.299V6.88172Z" fill="#E7B687"/>
</svg>
