<svg width="12" height="12" viewBox="0 0 12 12" fill="none" xmlns="http://www.w3.org/2000/svg">
<path fill-rule="evenodd" clip-rule="evenodd" d="M7.5 2V3C8.32886 3 9 3.67114 9 4.5H10C10 3.67114 10.6711 3 11.5 3V2C10.6711 2 10 1.32886 10 0.5H9C9 1.32886 8.32886 2 7.5 2ZM9.9994 2.5C9.81033 2.64206 9.64207 2.81033 9.5 2.9994C9.35793 2.81033 9.18967 2.64206 9.0006 2.5C9.18967 2.35794 9.35793 2.18967 9.5 2.0006C9.64207 2.18967 9.81033 2.35794 9.9994 2.5ZM0.5 7V8C2.43286 8 4 9.56714 4 11.5H5C5 9.56714 6.56714 8 8.5 8V7C6.56714 7 5 5.43286 5 3.5H4C4 5.43286 2.43286 7 0.5 7ZM6.43651 7.5C5.60742 7.9286 4.9286 8.60742 4.5 9.43651C4.0714 8.60742 3.39258 7.9286 2.56349 7.5C3.39258 7.0714 4.0714 6.39258 4.5 5.56349C4.9286 6.39258 5.60742 7.0714 6.43651 7.5Z" fill="#606B7C"/>
</svg>
