<svg width="12" height="12" viewBox="0 0 12 12" fill="none" xmlns="http://www.w3.org/2000/svg">
<path fill-rule="evenodd" clip-rule="evenodd" d="M1.875 0.875C1.32239 0.875 0.875 1.32239 0.875 1.875V8.99964C1.06742 8.91935 1.27855 8.875 1.5 8.875H10.5C10.7214 8.875 10.9326 8.91935 11.125 8.99964V1.875C11.125 1.32239 10.6776 0.875 10.125 0.875H1.875ZM-0.125 1.875V10.5C-0.125 11.3971 0.602858 12.125 1.5 12.125H10.5C11.3971 12.125 12.125 11.3971 12.125 10.5V1.875C12.125 0.770108 11.2299 -0.125 10.125 -0.125H1.875C0.770108 -0.125 -0.125 0.770108 -0.125 1.875ZM10.5 11.125C10.8449 11.125 11.125 10.8449 11.125 10.5C11.125 10.1551 10.8449 9.875 10.5 9.875H1.5C1.15514 9.875 0.875 10.1551 0.875 10.5C0.875 10.8449 1.15514 11.125 1.5 11.125H10.5ZM3.375 2.125C3.09886 2.125 2.875 2.34886 2.875 2.625V6.375C2.875 6.65114 3.09886 6.875 3.375 6.875H8.625C8.90114 6.875 9.125 6.65114 9.125 6.375V2.625C9.125 2.34886 8.90114 2.125 8.625 2.125H3.375ZM3.875 5.875V3.125H8.125V5.875H3.875Z" fill="#606B7C"/>
</svg>
