<svg width="12" height="12" viewBox="0 0 12 12" fill="none" xmlns="http://www.w3.org/2000/svg">
<path fill-rule="evenodd" clip-rule="evenodd" d="M11.1445 0.146484L7.49808 3.79293L4.85164 1.14648L4.49808 0.792931L4.14453 1.14648L0.144531 5.14648L0.851638 5.85359L4.49808 2.20714L7.14453 4.85359L7.49808 5.20714L7.85164 4.85359L11.8516 0.853591L11.1445 0.146484ZM4.99808 5.00004V5.50004V11.5V12H3.99808V11.5V5.50004V5.00004H4.99808ZM1.99808 9.00004V9.50004V11.5V12H0.998085V11.5V9.50004V9.00004H1.99808ZM7.99808 9.50004V9.00004H6.99808V9.50004V11.5V12H7.99808V11.5V9.50004ZM10.9981 5.00004V5.50004V11.5V12H9.99809V11.5V5.50004V5.00004H10.9981Z" fill="#606B7C"/>
</svg>
