<svg width="12" height="12" viewBox="0 0 12 12" fill="none" xmlns="http://www.w3.org/2000/svg">
<path fill-rule="evenodd" clip-rule="evenodd" d="M6 12C9.31371 12 12 9.31371 12 6C12 2.68629 9.31371 0 6 0C2.68629 0 0 2.68629 0 6C0 9.31371 2.68629 12 6 12ZM2.235 6.29498C2.7959 5.98649 3.41138 5.71651 4.00941 5.45419L4.00942 5.45419C4.15772 5.38914 4.30495 5.32456 4.45 5.25998C5.71 4.72998 6.97 4.20498 8.25 3.71998C8.5 3.63498 8.945 3.55498 8.99 3.92498C8.97143 4.31114 8.91426 4.6973 8.8574 5.08142L8.85739 5.08145L8.85739 5.08149C8.83768 5.2146 8.81801 5.34745 8.8 5.47998C8.6537 6.46101 8.4852 7.43833 8.31677 8.41514L8.31676 8.41522L8.235 8.88998C8.17 9.26998 7.695 9.46498 7.39 9.21998L7.38996 9.21995L7.38992 9.21992C6.65994 8.72994 5.92997 8.23996 5.21 7.73998C4.975 7.49998 5.195 7.15498 5.405 6.98498C5.64598 6.74802 5.8926 6.52477 6.13839 6.30227C6.50459 5.97078 6.86893 5.64097 7.21 5.26998C7.35526 4.92323 6.96478 5.17371 6.79166 5.28475L6.76 5.30498C6.55711 5.44478 6.35544 5.58672 6.15363 5.72876C5.53983 6.16078 4.92474 6.5937 4.27 6.96998C3.87549 7.18965 3.41666 7.04354 3.00885 6.91367C2.96183 6.89869 2.91549 6.88394 2.87 6.86998C2.81831 6.84904 2.76344 6.82802 2.70789 6.80673L2.70787 6.80672C2.33893 6.66533 1.9395 6.51226 2.235 6.29498Z" fill="#606B7C"/>
</svg>
